<svg xmlns="http://www.w3.org/2000/svg" viewBox="0 0 1024 1024" width="16" height="16" style="fill: rgba(183,182,182,1);"><path d="M955.417 913.102l-249.886-249.9c61.4-64.646 99.27-151.765 99.27-247.893 0-199.052-161.358-360.413-360.4-360.413-199.049 0-360.417 161.361-360.417 360.413 0 199.01 161.368 360.405 360.417 360.405 79.18 0 152.221-25.852 211.692-69.17l252.931 252.949c12.85 12.813 33.524 12.813 46.365 0 12.84-12.876 12.84-33.552.028-46.391zM444.4 717.033c-162.849 0-294.891-132.038-294.891-294.884 0-162.873 132.042-294.878 294.891-294.878 162.869 0 294.874 132.043 294.874 294.878 0 162.818-132.004 294.884-294.874 294.884z"/></svg>