<svg xmlns="http://www.w3.org/2000/svg" viewBox="0 0 32 32" width="17" height="17" style="fill: #101010;"><path d="M25.467 11.733c3.239 0 4.442 2.018 3.739 4.629l-1.438 5.403-1.44 5.402-0.183 0.693h-23.611v-15.235h8.621l2.496-7.532c0.060-0.285 0.195-0.631 0.452-0.981 0.477-0.649 1.219-1.045 2.187-1.045 1.039 0 1.78 0.517 2.165 1.323 0.212 0.446 0.279 0.869 0.279 1.195v6.149h6.733zM24.709 25.994v0zM25.963 21.285l1.44-5.405c0.409-1.521-0.043-2.281-1.936-2.281h-8.599v-8.016c-0.008-0.143-0.043-0.276-0.101-0.397l0.003 0.006c-0.089-0.185-0.197-0.26-0.48-0.26-0.357 0-0.548 0.102-0.683 0.284-0.057 0.075-0.102 0.163-0.129 0.259l-0.001 0.006-0.035 0.141-2.939 8.869h-8.102v11.502h20.309l1.253-4.708zM8.8 13.733v13.867h1.867v-13.867z"></path></svg>