<svg xmlns="http://www.w3.org/2000/svg" viewBox="0 0 32 32" width="17" height="17" style="fill: #101010;"><path d="M12.288 26.766l2.833-3.39h11.785v-17.068h-21.664v17.067h4.215l0.611 0.734 2.219 2.656zM3.641 4.707h24.864v20.269h-12.637l-0.132 0.158-3.449 4.128-3.58-4.287h-5.067v-20.267zM11.439 14.83c0 0.895-0.691 1.621-1.545 1.621s-1.545-0.726-1.545-1.621c0-0.895 0.691-1.621 1.545-1.621s1.545 0.726 1.545 1.621zM17.875 14.83c0 0.895-0.692 1.621-1.545 1.621s-1.545-0.726-1.545-1.621c0-0.895 0.691-1.621 1.545-1.621s1.545 0.726 1.545 1.621zM24.313 14.83c0 0.895-0.692 1.621-1.545 1.621s-1.545-0.726-1.545-1.621c0-0.895 0.692-1.621 1.545-1.621s1.545 0.726 1.545 1.621z"></path></svg>